# xmcd
#
# Track frame offsets:
#	150
#	13520
#	28959
#	50924
#	66163
#	81665
#	115817
#	131769
#	150321
#
# Disc length: 2129 seconds
#
# Revision: 1
# Processed by: cddbd v1.4PL0 Copyright (c) Steve Scherf et al.
# Submitted via: EasyCDDAExtractor 5.0.7
#
DISCID=7b084f09
DTITLE=OMARA PORTUONDO - PENSAMIENTO
DYEAR=1900
DGENRE=Ballad
TTITLE0=PENSAMIENTO
TTITLE1=DOS GARDENIAS
TTITLE2=LAGRIMAS NEGRAS
TTITLE3=NOCHE CUBANA
TTITLE4=QUE MANERA DE QUERERTE
TTITLE5=SOLAMENTE UNA VEZ/BESAME MUCHO
TTITLE6=SANTA ISABEL DE LAS LAJAS
TTITLE7=YA NO ME QUIERES
TTITLE8=CAPILLITO DE ALELI
EXTD=
EXTT0=
EXTT1=
EXTT2=
EXTT3=
EXTT4=
EXTT5=
EXTT6=
EXTT7=
EXTT8=
PLAYORDER=
